PathFileType	4	(X/Y/Z)	29_1_51_p1_0-550.trc
DataRate	CameraRate	NumFrames	NumMarkers	Units	OrigDataRate	OrigDataStartFrame	OrigNumFrames
59.0	59.0	5	27	m	59.0	344	551
Frame#	Time	RHip			RKnee			RAnkle			RBigToe			RSmallToe			RHeel			LHip			LKnee			LAnkle			LBigToe			LSmallToe			LHeel			Neck			Head			Nose			RShoulder			RElbow			RWrist			RThumb			RIndex			RPinky			LShoulder			LElbow			LWrist			LThumb			LIndex			LPinky			
		X1	Y1	Z1	X2	Y2	Z2	X3	Y3	Z3	X4	Y4	Z4	X5	Y5	Z5	X6	Y6	Z6	X7	Y7	Z7	X8	Y8	Z8	X9	Y9	Z9	X10	Y10	Z10	X11	Y11	Z11	X12	Y12	Z12	X13	Y13	Z13	X14	Y14	Z14	X15	Y15	Z15	X16	Y16	Z16	X17	Y17	Z17	X18	Y18	Z18	X19	Y19	Z19	X20	Y20	Z20	X21	Y21	Z21	X22	Y22	Z22	X23	Y23	Z23	X24	Y24	Z24	X25	Y25	Z25	X26	Y26	Z26	X27	Y27	Z27	
344	5.830508474576271	0.3570102209770222	0.48485539586079907	0.8728123554643801	0.317754503362249	0.6319192869673211	1.3321400256337128	0.3035875516997718	0.7576628107692717	1.731666696965397	0.29657123087558745	0.6014647293823532	1.7592932586973409	0.3538748437483747	0.6032180916835507	1.7508437948052686	0.28243284401243496	0.8532662726363714	1.8129488103502531	0.13677780106535983	0.5468960544204121	0.8710671375858474	0.11267926071930728	0.6435012094206254	1.325158946346295	0.10672701627211968	0.7694640531771081	1.732267846417612	0.11890697906735838	0.5500896199861524	1.7253601084590544	0.0640272567678185	0.6183100681203122	1.7353350733857014	0.12262747831542893	0.8428783688858764	1.7847216797573158	0.2633702522789908	0.520382112541662	0.3122778214760098	0.2870719720538825	0.4726240064453809	0.0818592039408117	0.2691935678602042	0.3463636886747181	0.20334926720219784	0.4074003240631123	0.46157347891976647	0.37734792357092634	0.4838445491019196	0.27193986347356147	0.28271894284077936	0.3745182772460766	0.15738910230121372	0.1278845295122407	0.28271517796519874	0.12144255556586264	0.06740582747600099	0.3122547241903265	0.1352429719933869	0.010964883013080995	0.3894769532005056	0.1214275936929261	0.011416203446487009	0.14185415490127115	0.5247435171048043	0.3665822036413313	0.013343929658495136	0.35600998837202597	0.26489323242656504	0.06402912787078241	0.22886450197768168	0.10198136625779894	0.13391084283563995	0.18102906300433605	0.04855979888637359	0.10420422799024055	0.21797177844596974	-0.026559604575076397	0.027156330511053945	0.21389071645619936	-0.015845489256593733
345	5.8474576271186445	0.3519625894006792	0.49948736517739867	0.8787172412636974	0.3177262891580736	0.6317812364769263	1.3320647684329159	0.3010350306580921	0.7456331263500218	1.731168052600235	0.29417555259649364	0.5893164821947108	1.753933115381452	0.3505388582657891	0.5892403051993479	1.7408255288849341	0.27693476196863687	0.8715904602858657	1.8204493443884782	0.1359203700334601	0.5479107343090688	0.8750664317105387	0.11264213813576561	0.6436021632678803	1.3252659352234557	0.1066672329980601	0.7694456292053233	1.7323425145162639	0.11852134082401619	0.5474446581406848	1.720559832417068	0.07004424736531575	0.6036536339344168	1.729338720679973	0.11680895051822175	0.8621536267908875	1.7926735514333603	0.2680041997314624	0.5212774172119626	0.3086391501460975	0.2951142889119101	0.45903903891252823	0.08635779715770621	0.27201553692716757	0.3570962649505299	0.20249418117216528	0.4072042258655804	0.4598367632396798	0.37375355456014736	0.49209102188219545	0.2619633281831338	0.30800786355011484	0.38812549685403447	0.18218968235320976	0.13446753247525678	0.297688085680164	0.16049888424237957	0.059522981091823635	0.32435018557912926	0.1594374951583871	0.015279675136059058	0.3967677511115077	0.12837551816105755	0.02433241915770445	0.13467895026404897	0.5253876877185768	0.3625276590228072	0.0074918509597172505	0.37001075125898225	0.27075362985358586	0.08667975658317217	0.250650236633553	0.10993804087026038	0.14619265856621286	0.17489089069291908	0.05320074333804541	0.1214007076491037	0.19010730961174957	-0.009342811793558668	0.055835671628850864	0.21775622835106295	-0.005646933323392611
346	5.864406779661017	0.3519826021870793	0.499552123286562	0.8786594751885695	0.317092696552453	0.6294975252507397	1.3274371172686608	0.30025568695730437	0.742747564790059	1.7257507829435927	0.29401815024280764	0.5887485160860946	1.7537761505164418	0.35329767989755384	0.6009381002256907	1.7457596291388593	0.27615003603325106	0.8683523827392358	1.8146586292743851	0.13618346558342867	0.5499156124367189	0.8791466144815211	0.11266792917227636	0.6435301517942363	1.3252116414297246	0.10669424896914376	0.7694724977045546	1.7322538998289574	0.11861852375966858	0.5473135544256541	1.7204900465087987	0.07014523702608828	0.6034633003412867	1.7292405754145883	0.12270939648246224	0.8443392472025524	1.7853687102006255	0.26806774487253565	0.5218116042877717	0.3047430702348769	0.290830690998664	0.44803776311847	0.09445011891627253	0.26744336935687757	0.36831146620335165	0.1982910124786368	0.40741566139148794	0.4618712553543366	0.37359448876232776	0.4954931144080646	0.2552137102455313	0.31480496365129584	0.39913735999819844	0.19611325328136303	0.1468953692587735	0.32109497751974425	0.19750993087662266	0.058473098627802755	0.33404770984817966	0.1819551217682196	0.01886095440401358	0.40502056199990055	0.15570692252612878	0.03125194123704404	0.13957373503796094	0.5142495603271157	0.36666025014800896	0.006743695372896146	0.3730845906522522	0.28423270816091856	0.0933244560634686	0.26605516121071887	0.11841989939288301	0.17365827578552892	0.21770542117552996	0.049609160629375766	0.13336362986322858	0.19709269513039326	0.012730794664969675	0.07206192336498383	0.23598943688302307	0.01564335701355142
347	5.88135593220339	0.355653542953016	0.48636945276548804	0.8806517434560963	0.31710205918571643	0.6295683819687369	1.327582341008771	0.300206982975996	0.7428799061994131	1.7259702068831988	0.29414317145315383	0.5881864577884289	1.7535569656153904	0.35325870438178586	0.601128826763897	1.7457501209074084	0.2755138978497447	0.8731263724343443	1.825513456891748	0.1413131219530084	0.5337491121130633	0.8732305621440554	0.1099382319958823	0.6271165239336478	1.3166488620889198	0.10019975686373113	0.7825911042298809	1.732757862164454	0.11854133708583503	0.5471828076228861	1.7203216221924702	0.0700858931109986	0.6033055810442797	1.729118172670004	0.11654387369015502	0.8621273421801078	1.792659413059892	0.2726616403957533	0.5084873818983722	0.30916024936730685	0.2900831899684518	0.47374013736415854	0.09121732648204255	0.26492397122141653	0.3579818533516259	0.1988137567128449	0.4072180700347177	0.46045598819112743	0.3701547896198106	0.5031656066701059	0.2758685456533776	0.3351429777721378	0.4130923664384487	0.22548513733340364	0.1697933502260819	0.3325484073949209	0.21464064240506664	0.07750641075203761	0.35018483471651257	0.20578470223189577	0.036469300983113656	0.4187001271726579	0.18862688330879238	0.04889304284096395	0.1403016918926486	0.5129993219279696	0.3629452633628934	0.01064325091319196	0.3498510782279613	0.2899058476901271	0.09918269464406057	0.2807527656130103	0.12052764162424363	0.18572896142212858	0.26056509969313707	0.047920961173959505	0.16671153476944195	0.21184290055540933	0.02865893515926619	0.09375476920796293	0.24955166491094488	0.03403697480273715
348	5.898305084745763	0.35199606951757206	0.49956456693104184	0.8786123758204554	0.31716314491132197	0.6293129125976318	1.3274152007259568	0.2989936527560989	0.74388579779012	1.7305967179442552	0.29432352056368954	0.587427720032963	1.7532859818088264	0.3534623421112057	0.599840940701427	1.7454119147211065	0.27954925499985595	0.8484832192842642	1.806667851717729	0.1415788004124397	0.5348940881636202	0.8813091948026891	0.11036152982625831	0.6295723898433894	1.3213671660908948	0.10617248016943187	0.766447478274626	1.7265988302281485	0.12422801694796255	0.5356056903406033	1.7191319630020259	0.07038851651306928	0.6027711655086498	1.7288978961856365	0.12055376020598853	0.8454314362547898	1.790996006440526	0.27005240775668615	0.49516219332988787	0.3023499857203757	0.29675187448793805	0.46097316769808977	0.08422066606340115	0.273315194122329	0.35954794910923	0.19272600408432503	0.40711791869002345	0.45852543795082645	0.3703945048854725	0.5139751021986895	0.2794695312980401	0.3478230580820958	0.4204289414569737	0.2387956476708928	0.18182161211617967	0.35561531773880767	0.2654905651077187	0.07438002605558455	0.36451071707318344	0.2533860491111146	0.05827671996733954	0.4243736419931392	0.19906426023229917	0.06886687294232746	0.1375509402401373	0.5006090318205119	0.3664348740678615	0.009443611649649056	0.35198787368606727	0.2999420217340684	0.10445088747945588	0.29522006606505014	0.1324660119192495	0.19133752251649727	0.27103237702861155	0.062169190421265515	0.17756307517217745	0.2658978180647431	0.03684978580995512	0.11688408760342213	0.23530663973709576	0.04920599219311758
